<?xml version="1.0" encoding="UTF-8"?>
<svg width="87px" height="64px" viewBox="0 0 87 64" version="1.1" xmlns="http://www.w3.org/2000/svg" xmlns:xlink="http://www.w3.org/1999/xlink">
    <!-- Generator: Sketch 56.3 (81716) - https://sketch.com -->
    <title>Untitled 2</title>
    <desc>Created with Sketch.</desc>
    <g id="Page-1" stroke="none" stroke-width="1" fill="none" fill-rule="evenodd">
        <g id="youtube_white_SVG" fill="#FFFFFF" fill-rule="nonzero">
            <path d="M83.796876,11 C83,6.601562 79.203126,3.398438 74.796876,2.398438 C68.203126,1 56,0 42.796876,0 C29.601562,0 17.203126,1 10.601562,2.398438 C6.203126,3.398438 2.398438,6.398438 1.601562,11 C0.796876,16 0,23 0,32 C0,41 0.796876,48 1.796876,53 C2.601562,57.398438 6.398438,60.601562 10.796876,61.601562 C17.796876,63 29.796876,64 43,64 C56.203126,64 68.203126,63 75.203126,61.601562 C79.601562,60.601562 83.398438,57.601562 84.203126,53 C85,48 86,40.796876 86.203126,32 C85.796876,23 84.796876,16 83.796876,11 Z M32,46 L32,18 L56.398438,32 L32,46 Z" id="Shape"></path>
        </g>
    </g>
</svg>