<svg width="356" height="24" viewBox="0 0 356 24" fill="none" xmlns="http://www.w3.org/2000/svg">
<path d="M0.776 18.001V1.80098C0.776 1.80098 0.872 1.80098 1.064 1.80098C1.256 1.79298 1.528 1.78498 1.88 1.77698C2.24 1.76898 2.66 1.76098 3.14 1.75298C3.62 1.74498 4.148 1.73698 4.724 1.72898C5.3 1.72098 5.908 1.71698 6.548 1.71698C7.188 1.70898 7.844 1.70498 8.516 1.70498C10.06 1.70498 11.416 1.82098 12.584 2.05298C13.76 2.28498 14.744 2.63298 15.536 3.09698C16.328 3.55298 16.924 4.12898 17.324 4.82498C17.732 5.51298 17.936 6.31298 17.936 7.22498C17.936 8.14498 17.732 8.97698 17.324 9.72098C16.924 10.457 16.312 11.089 15.488 11.617C14.672 12.145 13.636 12.553 12.38 12.841C11.132 13.129 9.66 13.273 7.964 13.273C7.796 13.273 7.612 13.273 7.412 13.273C7.22 13.265 7.044 13.261 6.884 13.261C6.724 13.261 6.588 13.261 6.476 13.261C6.372 13.261 6.32 13.261 6.32 13.261V18.001H0.776ZM6.32 9.56498C6.32 9.56498 6.348 9.56898 6.404 9.57698C6.46 9.57698 6.532 9.57698 6.62 9.57698C6.716 9.57698 6.828 9.58098 6.956 9.58898C7.084 9.59698 7.22 9.60498 7.364 9.61298C7.508 9.61298 7.652 9.61698 7.796 9.62498C7.948 9.62498 8.1 9.62498 8.252 9.62498C8.828 9.62498 9.348 9.58098 9.812 9.49298C10.276 9.40498 10.664 9.27298 10.976 9.09698C11.296 8.91298 11.54 8.68898 11.708 8.42498C11.884 8.15298 11.972 7.84098 11.972 7.48898C11.972 7.15298 11.892 6.85298 11.732 6.58898C11.58 6.32498 11.348 6.10098 11.036 5.91698C10.724 5.72498 10.328 5.58098 9.848 5.48498C9.376 5.38898 8.82 5.34098 8.18 5.34098C7.988 5.34098 7.784 5.34498 7.568 5.35298C7.352 5.35298 7.152 5.35698 6.968 5.36498C6.784 5.36498 6.628 5.36898 6.5 5.37698C6.38 5.37698 6.32 5.37698 6.32 5.37698V9.56498ZM36.5906 11.773C36.5906 12.725 36.3786 13.601 35.9546 14.401C35.5386 15.201 34.9306 15.893 34.1306 16.477C33.3306 17.061 32.3466 17.517 31.1786 17.845C30.0186 18.165 28.6906 18.325 27.1946 18.325C25.8426 18.325 24.6266 18.193 23.5466 17.929C22.4666 17.665 21.5506 17.281 20.7986 16.777C20.0546 16.265 19.4826 15.637 19.0826 14.893C18.6826 14.141 18.4826 13.277 18.4826 12.301C18.4826 11.349 18.6906 10.473 19.1066 9.67298C19.5306 8.87298 20.1426 8.18098 20.9426 7.59698C21.7426 7.01298 22.7226 6.56098 23.8826 6.24098C25.0506 5.91298 26.3826 5.74898 27.8786 5.74898C29.2386 5.74898 30.4546 5.88098 31.5266 6.14498C32.6066 6.40898 33.5186 6.79698 34.2626 7.30898C35.0146 7.81298 35.5906 8.44098 35.9906 9.19298C36.3906 9.93698 36.5906 10.797 36.5906 11.773ZM30.9146 12.049C30.9146 11.633 30.8306 11.265 30.6626 10.945C30.5026 10.617 30.2746 10.341 29.9786 10.117C29.6826 9.89298 29.3266 9.72498 28.9106 9.61298C28.5026 9.49298 28.0506 9.43298 27.5546 9.43298C27.0666 9.43298 26.6146 9.49298 26.1986 9.61298C25.7826 9.72498 25.4226 9.89298 25.1186 10.117C24.8226 10.333 24.5866 10.605 24.4106 10.933C24.2426 11.253 24.1586 11.617 24.1586 12.025C24.1586 12.449 24.2426 12.821 24.4106 13.141C24.5786 13.453 24.8066 13.721 25.0946 13.945C25.3906 14.169 25.7426 14.337 26.1506 14.449C26.5666 14.561 27.0226 14.617 27.5186 14.617C28.0066 14.617 28.4586 14.561 28.8746 14.449C29.2906 14.337 29.6466 14.173 29.9426 13.957C30.2466 13.733 30.4826 13.465 30.6506 13.153C30.8266 12.833 30.9146 12.465 30.9146 12.049ZM50.4958 9.37298C50.0878 9.29298 49.6678 9.22098 49.2358 9.15698C48.8118 9.09298 48.3838 9.03698 47.9518 8.98898C47.5278 8.94098 47.1118 8.90498 46.7038 8.88098C46.2958 8.84898 45.9038 8.83298 45.5278 8.83298C45.1758 8.83298 44.8838 8.84898 44.6518 8.88098C44.4198 8.91298 44.2358 8.95698 44.0998 9.01298C43.9638 9.06098 43.8678 9.12498 43.8118 9.20498C43.7638 9.27698 43.7398 9.35298 43.7398 9.43298C43.7398 9.58498 43.8558 9.70898 44.0878 9.80498C44.3278 9.90098 44.6398 9.99298 45.0238 10.081C45.4158 10.161 45.8598 10.245 46.3558 10.333C46.8518 10.413 47.3598 10.517 47.8798 10.645C48.3998 10.765 48.9078 10.917 49.4037 11.101C49.8998 11.285 50.3398 11.517 50.7238 11.797C51.1158 12.069 51.4278 12.401 51.6598 12.793C51.8998 13.177 52.0198 13.633 52.0198 14.161C52.0198 14.769 51.8718 15.329 51.5758 15.841C51.2798 16.345 50.8198 16.785 50.1958 17.161C49.5718 17.529 48.7718 17.813 47.7958 18.013C46.8198 18.221 45.6518 18.325 44.2918 18.325C43.8678 18.325 43.4118 18.317 42.9238 18.301C42.4358 18.285 41.9358 18.257 41.4238 18.217C40.9198 18.185 40.4118 18.141 39.8998 18.085C39.3958 18.029 38.9158 17.969 38.4598 17.905L38.8318 14.473C39.3358 14.593 39.8518 14.697 40.3798 14.785C40.9158 14.873 41.4398 14.949 41.9518 15.013C42.4638 15.069 42.9518 15.113 43.4158 15.145C43.8798 15.169 44.3078 15.181 44.6998 15.181C45.0518 15.181 45.3438 15.165 45.5758 15.133C45.8078 15.101 45.9918 15.061 46.1278 15.013C46.2718 14.957 46.3718 14.893 46.4278 14.821C46.4838 14.741 46.5118 14.653 46.5118 14.557C46.5118 14.389 46.3918 14.253 46.1518 14.149C45.9198 14.037 45.6118 13.941 45.2278 13.861C44.8438 13.773 44.4038 13.689 43.9078 13.609C43.4118 13.521 42.9078 13.421 42.3958 13.309C41.8838 13.189 41.3798 13.041 40.8838 12.865C40.3958 12.689 39.9598 12.465 39.5758 12.193C39.1918 11.921 38.8798 11.593 38.6398 11.209C38.4078 10.817 38.2918 10.353 38.2918 9.81698C38.2918 9.20898 38.4438 8.65698 38.7478 8.16098C39.0518 7.65698 39.5158 7.22898 40.1398 6.87698C40.7638 6.51698 41.5518 6.23698 42.5038 6.03698C43.4558 5.83698 44.5838 5.73698 45.8878 5.73698C46.2718 5.73698 46.6718 5.74498 47.0878 5.76098C47.5118 5.77698 47.9358 5.79698 48.3598 5.82098C48.7918 5.84498 49.2198 5.87698 49.6438 5.91698C50.0678 5.95698 50.4798 6.00498 50.8798 6.06098L50.4958 9.37298ZM66.0817 9.37298C65.6737 9.29298 65.2537 9.22098 64.8217 9.15698C64.3977 9.09298 63.9697 9.03698 63.5377 8.98898C63.1137 8.94098 62.6977 8.90498 62.2897 8.88098C61.8817 8.84898 61.4897 8.83298 61.1137 8.83298C60.7617 8.83298 60.4697 8.84898 60.2377 8.88098C60.0057 8.91298 59.8217 8.95698 59.6857 9.01298C59.5497 9.06098 59.4537 9.12498 59.3977 9.20498C59.3497 9.27698 59.3257 9.35298 59.3257 9.43298C59.3257 9.58498 59.4417 9.70898 59.6737 9.80498C59.9137 9.90098 60.2257 9.99298 60.6097 10.081C61.0017 10.161 61.4457 10.245 61.9417 10.333C62.4377 10.413 62.9457 10.517 63.4657 10.645C63.9857 10.765 64.4937 10.917 64.9897 11.101C65.4857 11.285 65.9257 11.517 66.3097 11.797C66.7017 12.069 67.0137 12.401 67.2457 12.793C67.4857 13.177 67.6057 13.633 67.6057 14.161C67.6057 14.769 67.4577 15.329 67.1617 15.841C66.8657 16.345 66.4057 16.785 65.7817 17.161C65.1577 17.529 64.3577 17.813 63.3817 18.013C62.4057 18.221 61.2377 18.325 59.8777 18.325C59.4537 18.325 58.9977 18.317 58.5097 18.301C58.0217 18.285 57.5217 18.257 57.0097 18.217C56.5057 18.185 55.9977 18.141 55.4857 18.085C54.9817 18.029 54.5017 17.969 54.0457 17.905L54.4177 14.473C54.9217 14.593 55.4377 14.697 55.9657 14.785C56.5017 14.873 57.0257 14.949 57.5377 15.013C58.0497 15.069 58.5377 15.113 59.0017 15.145C59.4657 15.169 59.8937 15.181 60.2857 15.181C60.6377 15.181 60.9297 15.165 61.1617 15.133C61.3937 15.101 61.5777 15.061 61.7137 15.013C61.8577 14.957 61.9577 14.893 62.0137 14.821C62.0697 14.741 62.0977 14.653 62.0977 14.557C62.0977 14.389 61.9777 14.253 61.7377 14.149C61.5057 14.037 61.1977 13.941 60.8137 13.861C60.4297 13.773 59.9897 13.689 59.4937 13.609C58.9977 13.521 58.4937 13.421 57.9817 13.309C57.4697 13.189 56.9657 13.041 56.4697 12.865C55.9817 12.689 55.5457 12.465 55.1617 12.193C54.7777 11.921 54.4657 11.593 54.2257 11.209C53.9937 10.817 53.8777 10.353 53.8777 9.81698C53.8777 9.20898 54.0297 8.65698 54.3337 8.16098C54.6377 7.65698 55.1017 7.22898 55.7257 6.87698C56.3497 6.51698 57.1377 6.23698 58.0897 6.03698C59.0417 5.83698 60.1697 5.73698 61.4737 5.73698C61.8577 5.73698 62.2577 5.74498 62.6737 5.76098C63.0977 5.77698 63.5217 5.79698 63.9457 5.82098C64.3777 5.84498 64.8057 5.87698 65.2297 5.91698C65.6537 5.95698 66.0657 6.00498 66.4657 6.06098L66.0817 9.37298ZM76.0396 2.61698C76.0396 2.96098 75.9676 3.28898 75.8236 3.60098C75.6876 3.90498 75.4836 4.17698 75.2116 4.41698C74.9476 4.64898 74.6196 4.83698 74.2276 4.98098C73.8436 5.11698 73.4036 5.18498 72.9076 5.18498C72.4116 5.18498 71.9676 5.11698 71.5756 4.98098C71.1916 4.83698 70.8636 4.64898 70.5916 4.41698C70.3196 4.17698 70.1116 3.90098 69.9676 3.58898C69.8316 3.27698 69.7636 2.95298 69.7636 2.61698C69.7636 2.28098 69.8316 1.96098 69.9676 1.65698C70.1116 1.34498 70.3196 1.07298 70.5916 0.840976C70.8636 0.600976 71.1916 0.408976 71.5756 0.264976C71.9676 0.120976 72.4116 0.0489759 72.9076 0.0489759C73.4036 0.0489759 73.8436 0.120976 74.2276 0.264976C74.6196 0.400976 74.9476 0.588975 75.2116 0.828975C75.4836 1.06098 75.6876 1.33298 75.8236 1.64498C75.9676 1.95698 76.0396 2.28098 76.0396 2.61698ZM70.1836 18.001V6.07298H75.6316V18.001H70.1836ZM84.4207 4.53698C84.4207 4.83298 84.4127 5.12098 84.3967 5.40098C84.3807 5.67298 84.3607 5.93698 84.3367 6.19298C84.3207 6.44898 84.2927 6.68898 84.2527 6.91298C84.2127 7.13698 84.1687 7.34498 84.1207 7.53698H84.1447C84.3607 7.29698 84.6287 7.06898 84.9487 6.85298C85.2687 6.63698 85.6447 6.44498 86.0767 6.27698C86.5087 6.10898 86.9927 5.98098 87.5287 5.89298C88.0647 5.79698 88.6607 5.74898 89.3167 5.74898C90.3407 5.74898 91.2527 5.87698 92.0527 6.13298C92.8527 6.38898 93.5247 6.76098 94.0687 7.24898C94.6207 7.72898 95.0367 8.31698 95.3167 9.01298C95.6047 9.70898 95.7487 10.493 95.7487 11.365C95.7487 12.381 95.5447 13.313 95.1367 14.161C94.7287 15.009 94.1167 15.745 93.3007 16.369C92.4927 16.985 91.4727 17.465 90.2407 17.809C89.0167 18.153 87.5887 18.325 85.9567 18.325C85.3327 18.325 84.7087 18.305 84.0847 18.265C83.4607 18.225 82.8487 18.173 82.2487 18.109C81.6567 18.045 81.0807 17.973 80.5207 17.893C79.9687 17.813 79.4527 17.733 78.9727 17.653V0.672975H84.4207V4.53698ZM84.4207 14.581C84.6047 14.605 84.7887 14.625 84.9727 14.641C85.1567 14.657 85.3367 14.673 85.5127 14.689C85.6887 14.705 85.8607 14.717 86.0287 14.725C86.1967 14.733 86.3607 14.737 86.5207 14.737C87.0487 14.737 87.5287 14.677 87.9607 14.557C88.4007 14.437 88.7727 14.257 89.0767 14.017C89.3887 13.777 89.6287 13.473 89.7967 13.105C89.9727 12.737 90.0607 12.305 90.0607 11.809C90.0607 11.433 90.0087 11.097 89.9047 10.801C89.8007 10.505 89.6487 10.257 89.4487 10.057C89.2487 9.85698 89.0007 9.70498 88.7047 9.60098C88.4167 9.49698 88.0807 9.44498 87.6967 9.44498C87.4167 9.44498 87.1447 9.47298 86.8807 9.52898C86.6247 9.58498 86.3727 9.67298 86.1247 9.79298C85.8767 9.91298 85.6487 10.065 85.4407 10.249C85.2327 10.425 85.0527 10.633 84.9007 10.873C84.7487 11.113 84.6287 11.385 84.5407 11.689C84.4607 11.993 84.4207 12.325 84.4207 12.685V14.581ZM104.047 2.61698C104.047 2.96098 103.975 3.28898 103.831 3.60098C103.695 3.90498 103.491 4.17698 103.219 4.41698C102.955 4.64898 102.627 4.83698 102.235 4.98098C101.851 5.11698 101.411 5.18498 100.915 5.18498C100.419 5.18498 99.9754 5.11698 99.5834 4.98098C99.1994 4.83698 98.8714 4.64898 98.5994 4.41698C98.3274 4.17698 98.1194 3.90098 97.9754 3.58898C97.8394 3.27698 97.7714 2.95298 97.7714 2.61698C97.7714 2.28098 97.8394 1.96098 97.9754 1.65698C98.1194 1.34498 98.3274 1.07298 98.5994 0.840976C98.8714 0.600976 99.1994 0.408976 99.5834 0.264976C99.9754 0.120976 100.419 0.0489759 100.915 0.0489759C101.411 0.0489759 101.851 0.120976 102.235 0.264976C102.627 0.400976 102.955 0.588975 103.219 0.828975C103.491 1.06098 103.695 1.33298 103.831 1.64498C103.975 1.95698 104.047 2.28098 104.047 2.61698ZM98.1914 18.001V6.07298H103.639V18.001H98.1914ZM106.981 18.001V0.672975H112.429V18.001H106.981ZM121.626 2.61698C121.626 2.96098 121.554 3.28898 121.41 3.60098C121.274 3.90498 121.07 4.17698 120.798 4.41698C120.534 4.64898 120.206 4.83698 119.814 4.98098C119.43 5.11698 118.99 5.18498 118.494 5.18498C117.998 5.18498 117.554 5.11698 117.162 4.98098C116.778 4.83698 116.45 4.64898 116.178 4.41698C115.906 4.17698 115.698 3.90098 115.554 3.58898C115.418 3.27698 115.35 2.95298 115.35 2.61698C115.35 2.28098 115.418 1.96098 115.554 1.65698C115.698 1.34498 115.906 1.07298 116.178 0.840976C116.45 0.600976 116.778 0.408976 117.162 0.264976C117.554 0.120976 117.998 0.0489759 118.494 0.0489759C118.99 0.0489759 119.43 0.120976 119.814 0.264976C120.206 0.400976 120.534 0.588975 120.798 0.828975C121.07 1.06098 121.274 1.33298 121.41 1.64498C121.554 1.95698 121.626 2.28098 121.626 2.61698ZM115.77 18.001V6.07298H121.218V18.001H115.77ZM135.023 17.917C134.727 17.981 134.411 18.037 134.075 18.085C133.739 18.133 133.391 18.173 133.031 18.205C132.671 18.245 132.303 18.273 131.927 18.289C131.551 18.313 131.179 18.325 130.811 18.325C129.795 18.325 128.939 18.257 128.243 18.121C127.555 17.985 126.995 17.753 126.563 17.425C126.139 17.097 125.835 16.653 125.651 16.093C125.467 15.533 125.375 14.829 125.375 13.981V9.63698H122.951V6.07298H125.375V2.67698L130.811 1.54898V6.07298H134.891V9.63698H130.811V13.261C130.811 13.525 130.839 13.749 130.895 13.933C130.951 14.109 131.043 14.253 131.171 14.365C131.307 14.477 131.479 14.557 131.687 14.605C131.895 14.645 132.151 14.665 132.455 14.665C132.615 14.665 132.795 14.661 132.995 14.653C133.203 14.637 133.411 14.621 133.619 14.605C133.827 14.589 134.031 14.569 134.231 14.545C134.431 14.513 134.607 14.485 134.759 14.461L135.023 17.917ZM148.368 17.341C147.808 18.501 147.2 19.477 146.544 20.269C145.888 21.069 145.156 21.713 144.348 22.201C143.54 22.689 142.648 23.041 141.672 23.257C140.696 23.473 139.604 23.581 138.396 23.581C138.084 23.581 137.776 23.573 137.472 23.557C137.168 23.541 136.892 23.521 136.644 23.497C136.404 23.481 136.208 23.465 136.056 23.449C135.912 23.433 135.84 23.425 135.84 23.425L136.164 19.585C136.164 19.585 136.236 19.597 136.38 19.621C136.524 19.653 136.712 19.685 136.944 19.717C137.184 19.749 137.452 19.777 137.748 19.801C138.052 19.833 138.364 19.849 138.684 19.849C138.98 19.849 139.252 19.825 139.5 19.777C139.756 19.729 139.988 19.649 140.196 19.537C140.412 19.425 140.604 19.285 140.772 19.117C140.94 18.957 141.096 18.757 141.24 18.517L141.432 18.133L135.564 6.07298H141.744L143.4 9.60098C143.552 9.93698 143.692 10.269 143.82 10.597C143.956 10.925 144.084 11.249 144.204 11.569C144.324 11.881 144.436 12.193 144.54 12.505C144.644 12.809 144.744 13.109 144.84 13.405H144.9C144.988 13.101 145.08 12.797 145.176 12.493C145.272 12.181 145.376 11.869 145.488 11.557C145.6 11.237 145.716 10.913 145.836 10.585C145.956 10.257 146.084 9.92098 146.22 9.57698L147.768 6.07298H153.804L148.368 17.341ZM168.618 2.61698C168.618 2.96098 168.546 3.28898 168.402 3.60098C168.266 3.90498 168.062 4.17698 167.79 4.41698C167.526 4.64898 167.198 4.83698 166.806 4.98098C166.422 5.11698 165.982 5.18498 165.486 5.18498C164.99 5.18498 164.546 5.11698 164.154 4.98098C163.77 4.83698 163.442 4.64898 163.17 4.41698C162.898 4.17698 162.69 3.90098 162.546 3.58898C162.41 3.27698 162.342 2.95298 162.342 2.61698C162.342 2.28098 162.41 1.96098 162.546 1.65698C162.69 1.34498 162.898 1.07298 163.17 0.840976C163.442 0.600976 163.77 0.408976 164.154 0.264976C164.546 0.120976 164.99 0.0489759 165.486 0.0489759C165.982 0.0489759 166.422 0.120976 166.806 0.264976C167.198 0.400976 167.526 0.588975 167.79 0.828975C168.062 1.06098 168.266 1.33298 168.402 1.64498C168.546 1.95698 168.618 2.28098 168.618 2.61698ZM162.762 18.001V6.07298H168.21V18.001H162.762ZM181.871 18.001V11.293C181.871 10.965 181.847 10.685 181.799 10.453C181.751 10.221 181.667 10.033 181.547 9.88898C181.435 9.73698 181.279 9.62898 181.079 9.56498C180.879 9.49298 180.631 9.45698 180.335 9.45698C179.911 9.45698 179.495 9.52898 179.087 9.67298C178.687 9.80898 178.331 10.009 178.019 10.273C177.715 10.537 177.467 10.861 177.275 11.245C177.091 11.629 176.999 12.061 176.999 12.541V18.001H171.551V6.07298H176.603C176.603 6.20098 176.599 6.34098 176.591 6.49298C176.583 6.64498 176.575 6.80098 176.567 6.96098C176.559 7.11298 176.539 7.26898 176.507 7.42898C176.483 7.58098 176.459 7.72498 176.435 7.86098H176.459C176.699 7.55698 176.995 7.27698 177.347 7.02098C177.707 6.75698 178.115 6.53298 178.571 6.34898C179.035 6.15698 179.547 6.00898 180.107 5.90498C180.667 5.80098 181.275 5.74898 181.931 5.74898C182.883 5.74898 183.699 5.84098 184.379 6.02498C185.059 6.20898 185.615 6.49298 186.047 6.87698C186.479 7.26098 186.799 7.74498 187.007 8.32898C187.215 8.91298 187.319 9.60498 187.319 10.405V18.001H181.871ZM200.662 10.597H208.018C208.002 10.309 207.93 10.057 207.802 9.84098C207.682 9.61698 207.51 9.43298 207.286 9.28898C207.07 9.14498 206.81 9.03698 206.506 8.96498C206.202 8.89298 205.866 8.85698 205.498 8.85698C205.042 8.85698 204.638 8.91698 204.286 9.03698C203.934 9.15698 203.634 9.32498 203.386 9.54098C203.146 9.74898 202.962 10.001 202.834 10.297C202.714 10.593 202.654 10.921 202.654 11.281V12.781C202.654 13.189 202.734 13.537 202.894 13.825C203.054 14.105 203.298 14.337 203.626 14.521C203.962 14.705 204.378 14.841 204.874 14.929C205.37 15.017 205.958 15.061 206.638 15.061C207.078 15.061 207.53 15.049 207.994 15.025C208.458 14.993 208.926 14.953 209.398 14.905C209.87 14.857 210.346 14.797 210.826 14.725C211.306 14.653 211.786 14.565 212.266 14.461L212.71 17.569C212.166 17.697 211.606 17.809 211.03 17.905C210.462 17.993 209.886 18.069 209.302 18.133C208.726 18.197 208.142 18.245 207.55 18.277C206.966 18.309 206.39 18.325 205.822 18.325C204.43 18.325 203.194 18.209 202.114 17.977C201.042 17.737 200.138 17.373 199.402 16.885C198.674 16.397 198.118 15.781 197.734 15.037C197.358 14.285 197.17 13.393 197.17 12.361C197.17 11.737 197.258 11.141 197.434 10.573C197.61 9.99698 197.866 9.46498 198.202 8.97698C198.546 8.48898 198.962 8.04498 199.45 7.64498C199.946 7.24498 200.514 6.90498 201.154 6.62498C201.794 6.34498 202.498 6.12898 203.266 5.97698C204.034 5.82498 204.866 5.74898 205.762 5.74898C207.058 5.74898 208.182 5.88898 209.134 6.16898C210.094 6.44098 210.886 6.83298 211.51 7.34498C212.134 7.84898 212.598 8.46098 212.902 9.18098C213.214 9.89298 213.37 10.685 213.37 11.557C213.37 11.773 213.362 11.989 213.346 12.205C213.338 12.413 213.326 12.605 213.31 12.781C213.294 12.949 213.278 13.085 213.262 13.189C213.254 13.293 213.25 13.345 213.25 13.345H200.662V10.597ZM226.209 18.001H219.369L213.681 6.07298H219.801L221.541 9.87698C221.693 10.221 221.833 10.557 221.961 10.885C222.097 11.213 222.221 11.533 222.333 11.845C222.453 12.149 222.561 12.449 222.657 12.745C222.761 13.033 222.857 13.321 222.945 13.609H223.005C223.173 13.033 223.357 12.441 223.557 11.833C223.765 11.217 224.005 10.569 224.277 9.88898L225.897 6.07298H231.909L226.209 18.001ZM235.186 10.597H242.542C242.526 10.309 242.454 10.057 242.326 9.84098C242.206 9.61698 242.034 9.43298 241.81 9.28898C241.594 9.14498 241.334 9.03698 241.03 8.96498C240.726 8.89298 240.39 8.85698 240.022 8.85698C239.566 8.85698 239.162 8.91698 238.81 9.03698C238.458 9.15698 238.158 9.32498 237.91 9.54098C237.67 9.74898 237.486 10.001 237.358 10.297C237.238 10.593 237.178 10.921 237.178 11.281V12.781C237.178 13.189 237.258 13.537 237.418 13.825C237.578 14.105 237.822 14.337 238.15 14.521C238.486 14.705 238.902 14.841 239.398 14.929C239.894 15.017 240.482 15.061 241.162 15.061C241.602 15.061 242.054 15.049 242.518 15.025C242.982 14.993 243.45 14.953 243.922 14.905C244.394 14.857 244.87 14.797 245.35 14.725C245.83 14.653 246.31 14.565 246.79 14.461L247.234 17.569C246.69 17.697 246.13 17.809 245.554 17.905C244.986 17.993 244.41 18.069 243.826 18.133C243.25 18.197 242.666 18.245 242.074 18.277C241.49 18.309 240.914 18.325 240.346 18.325C238.954 18.325 237.718 18.209 236.638 17.977C235.566 17.737 234.662 17.373 233.926 16.885C233.198 16.397 232.642 15.781 232.258 15.037C231.882 14.285 231.694 13.393 231.694 12.361C231.694 11.737 231.782 11.141 231.958 10.573C232.134 9.99698 232.39 9.46498 232.726 8.97698C233.07 8.48898 233.486 8.04498 233.974 7.64498C234.47 7.24498 235.038 6.90498 235.678 6.62498C236.318 6.34498 237.022 6.12898 237.79 5.97698C238.558 5.82498 239.39 5.74898 240.286 5.74898C241.582 5.74898 242.706 5.88898 243.658 6.16898C244.618 6.44098 245.41 6.83298 246.034 7.34498C246.658 7.84898 247.122 8.46098 247.426 9.18098C247.738 9.89298 247.894 10.685 247.894 11.557C247.894 11.773 247.886 11.989 247.87 12.205C247.862 12.413 247.85 12.605 247.834 12.781C247.818 12.949 247.802 13.085 247.786 13.189C247.778 13.293 247.774 13.345 247.774 13.345H235.186V10.597ZM260.508 10.249C259.716 10.129 259.036 10.101 258.468 10.165C257.9 10.221 257.428 10.377 257.052 10.633C256.684 10.881 256.408 11.229 256.224 11.677C256.048 12.125 255.96 12.681 255.96 13.345V18.001H250.512V6.07298H255.564C255.564 6.20898 255.56 6.35698 255.552 6.51698C255.544 6.66898 255.532 6.83298 255.516 7.00898C255.508 7.17698 255.492 7.34898 255.468 7.52498C255.444 7.69298 255.42 7.84898 255.396 7.99298H255.42C255.652 7.66498 255.924 7.36498 256.236 7.09298C256.548 6.81298 256.916 6.57298 257.34 6.37298C257.764 6.17298 258.248 6.02098 258.792 5.91698C259.344 5.80498 259.964 5.75298 260.652 5.76098L260.508 10.249ZM273.688 17.341C273.128 18.501 272.52 19.477 271.864 20.269C271.208 21.069 270.476 21.713 269.668 22.201C268.86 22.689 267.968 23.041 266.992 23.257C266.016 23.473 264.924 23.581 263.716 23.581C263.404 23.581 263.096 23.573 262.792 23.557C262.488 23.541 262.212 23.521 261.964 23.497C261.724 23.481 261.528 23.465 261.376 23.449C261.232 23.433 261.16 23.425 261.16 23.425L261.484 19.585C261.484 19.585 261.556 19.597 261.7 19.621C261.844 19.653 262.032 19.685 262.264 19.717C262.504 19.749 262.772 19.777 263.068 19.801C263.372 19.833 263.684 19.849 264.004 19.849C264.3 19.849 264.572 19.825 264.82 19.777C265.076 19.729 265.308 19.649 265.516 19.537C265.732 19.425 265.924 19.285 266.092 19.117C266.26 18.957 266.416 18.757 266.56 18.517L266.752 18.133L260.884 6.07298H267.064L268.72 9.60098C268.872 9.93698 269.012 10.269 269.14 10.597C269.276 10.925 269.404 11.249 269.524 11.569C269.644 11.881 269.756 12.193 269.86 12.505C269.964 12.809 270.064 13.109 270.16 13.405H270.22C270.308 13.101 270.4 12.797 270.496 12.493C270.592 12.181 270.696 11.869 270.808 11.557C270.92 11.237 271.036 10.913 271.156 10.585C271.276 10.257 271.404 9.92098 271.54 9.57698L273.088 6.07298H279.124L273.688 17.341ZM298.918 18.001C298.918 17.865 298.922 17.733 298.93 17.605C298.938 17.469 298.946 17.333 298.954 17.197C298.962 17.061 298.978 16.925 299.002 16.789C299.026 16.645 299.054 16.501 299.086 16.357H299.05C298.786 16.653 298.474 16.921 298.114 17.161C297.754 17.401 297.346 17.609 296.89 17.785C296.442 17.961 295.942 18.097 295.39 18.193C294.846 18.289 294.25 18.337 293.602 18.337C292.57 18.337 291.654 18.209 290.854 17.953C290.062 17.689 289.394 17.317 288.85 16.837C288.306 16.349 287.89 15.761 287.602 15.073C287.322 14.377 287.182 13.589 287.182 12.709C287.182 11.717 287.382 10.797 287.782 9.94898C288.182 9.10098 288.782 8.36898 289.582 7.75298C290.382 7.12898 291.378 6.64498 292.57 6.30098C293.77 5.94898 295.162 5.77298 296.746 5.77298C296.882 5.77298 297.026 5.77698 297.178 5.78498C297.338 5.78498 297.494 5.78898 297.646 5.79698C297.806 5.79698 297.958 5.80098 298.102 5.80898C298.254 5.81698 298.39 5.82498 298.51 5.83298V0.672975H303.958V18.001H298.918ZM298.51 9.48098C298.094 9.42498 297.714 9.38898 297.37 9.37298C297.026 9.34898 296.706 9.33698 296.41 9.33698C295.882 9.33698 295.398 9.39698 294.958 9.51698C294.526 9.63698 294.154 9.81698 293.842 10.057C293.538 10.297 293.302 10.601 293.134 10.969C292.966 11.337 292.882 11.769 292.882 12.265C292.882 12.641 292.93 12.977 293.026 13.273C293.13 13.569 293.282 13.821 293.482 14.029C293.682 14.229 293.93 14.381 294.226 14.485C294.522 14.581 294.858 14.629 295.234 14.629C295.642 14.629 296.042 14.565 296.434 14.437C296.826 14.309 297.174 14.109 297.478 13.837C297.79 13.565 298.038 13.225 298.222 12.817C298.414 12.409 298.51 11.925 298.51 11.365V9.48098ZM317.344 10.249C316.552 10.129 315.872 10.101 315.304 10.165C314.736 10.221 314.264 10.377 313.888 10.633C313.52 10.881 313.244 11.229 313.06 11.677C312.884 12.125 312.796 12.681 312.796 13.345V18.001H307.348V6.07298H312.4C312.4 6.20898 312.396 6.35698 312.388 6.51698C312.38 6.66898 312.368 6.83298 312.352 7.00898C312.344 7.17698 312.328 7.34898 312.304 7.52498C312.28 7.69298 312.256 7.84898 312.232 7.99298H312.256C312.488 7.66498 312.76 7.36498 313.072 7.09298C313.384 6.81298 313.752 6.57298 314.176 6.37298C314.6 6.17298 315.084 6.02098 315.628 5.91698C316.18 5.80498 316.8 5.75298 317.488 5.76098L317.344 10.249ZM336.38 11.773C336.38 12.725 336.168 13.601 335.744 14.401C335.328 15.201 334.72 15.893 333.92 16.477C333.12 17.061 332.136 17.517 330.968 17.845C329.808 18.165 328.48 18.325 326.984 18.325C325.632 18.325 324.416 18.193 323.336 17.929C322.256 17.665 321.34 17.281 320.588 16.777C319.844 16.265 319.272 15.637 318.872 14.893C318.472 14.141 318.272 13.277 318.272 12.301C318.272 11.349 318.48 10.473 318.896 9.67298C319.32 8.87298 319.932 8.18098 320.732 7.59698C321.532 7.01298 322.512 6.56098 323.672 6.24098C324.84 5.91298 326.172 5.74898 327.668 5.74898C329.028 5.74898 330.244 5.88098 331.316 6.14498C332.396 6.40898 333.308 6.79698 334.052 7.30898C334.804 7.81298 335.38 8.44098 335.78 9.19298C336.18 9.93698 336.38 10.797 336.38 11.773ZM330.704 12.049C330.704 11.633 330.62 11.265 330.452 10.945C330.292 10.617 330.064 10.341 329.768 10.117C329.472 9.89298 329.116 9.72498 328.7 9.61298C328.292 9.49298 327.84 9.43298 327.344 9.43298C326.856 9.43298 326.404 9.49298 325.988 9.61298C325.572 9.72498 325.212 9.89298 324.908 10.117C324.612 10.333 324.376 10.605 324.2 10.933C324.032 11.253 323.948 11.617 323.948 12.025C323.948 12.449 324.032 12.821 324.2 13.141C324.368 13.453 324.596 13.721 324.884 13.945C325.18 14.169 325.532 14.337 325.94 14.449C326.356 14.561 326.812 14.617 327.308 14.617C327.796 14.617 328.248 14.561 328.664 14.449C329.08 14.337 329.436 14.173 329.732 13.957C330.036 13.733 330.272 13.465 330.44 13.153C330.616 12.833 330.704 12.465 330.704 12.049ZM338.801 23.413V6.07298H343.841C343.841 6.20898 343.837 6.34498 343.829 6.48098C343.821 6.61698 343.813 6.75298 343.805 6.88898C343.797 7.02498 343.781 7.16098 343.757 7.29698C343.733 7.43298 343.709 7.57298 343.685 7.71698H343.709C343.981 7.41298 344.297 7.14098 344.657 6.90098C345.017 6.66098 345.421 6.45698 345.869 6.28898C346.317 6.11298 346.813 5.98098 347.357 5.89298C347.909 5.79698 348.509 5.74898 349.157 5.74898C350.181 5.74898 351.089 5.87698 351.881 6.13298C352.681 6.38898 353.353 6.76098 353.897 7.24898C354.449 7.72898 354.865 8.31698 355.145 9.01298C355.433 9.70898 355.577 10.493 355.577 11.365C355.577 12.389 355.377 13.325 354.977 14.173C354.585 15.021 353.989 15.749 353.189 16.357C352.397 16.965 351.405 17.441 350.213 17.785C349.021 18.121 347.629 18.289 346.037 18.289C345.893 18.289 345.741 18.285 345.581 18.277C345.429 18.269 345.269 18.261 345.101 18.253C344.941 18.253 344.789 18.249 344.645 18.241C344.501 18.233 344.369 18.221 344.249 18.205V23.413H338.801ZM344.249 14.593C344.657 14.641 345.033 14.677 345.377 14.701C345.729 14.725 346.053 14.737 346.349 14.737C346.877 14.737 347.357 14.677 347.789 14.557C348.229 14.437 348.601 14.257 348.905 14.017C349.217 13.777 349.457 13.473 349.625 13.105C349.801 12.737 349.889 12.305 349.889 11.809C349.889 11.433 349.837 11.097 349.733 10.801C349.629 10.505 349.477 10.257 349.277 10.057C349.077 9.84898 348.829 9.69698 348.533 9.60098C348.245 9.49698 347.909 9.44498 347.525 9.44498C347.245 9.44498 346.973 9.47298 346.709 9.52898C346.453 9.58498 346.201 9.67298 345.953 9.79298C345.705 9.91298 345.477 10.065 345.269 10.249C345.061 10.425 344.881 10.633 344.729 10.873C344.577 11.113 344.457 11.389 344.369 11.701C344.289 12.005 344.249 12.341 344.249 12.709V14.593Z" fill="white"/>
</svg>
